<svg width="1600" height="900" viewBox="0 0 1600 900" fill="none" xmlns="http://www.w3.org/2000/svg">
  <defs>
    <linearGradient id="paint1" x1="0" y1="0" x2="1" y2="1">
      <stop offset="0%" stop-color="#FF7A59"/>
      <stop offset="50%" stop-color="#FF4DA6"/>
      <stop offset="100%" stop-color="#C084FC"/>
    </linearGradient>

    <linearGradient id="paint2" x1="0" y1="0" x2="1" y2="1">
      <stop offset="0%" stop-color="#60A5FA"/>
      <stop offset="50%" stop-color="#22D3EE"/>
      <stop offset="100%" stop-color="#6EE7B7"/>
    </linearGradient>

    <filter id="blur" x="-50%" y="-50%" width="200%" height="200%">
      <feGaussianBlur stdDeviation="35" />
    </filter>
  </defs>

  <rect width="1600" height="900" fill="white"/>

  <path
    d="M380 470C460 410 570 390 710 430C760 445 810 465 860 470C790 510 730 550 650 560C540 575 450 545 380 470Z"
    fill="url(#paint1)"
    opacity="0.45"
    filter="url(#blur)"
  />

  <path
    d="M780 470C900 400 1030 390 1220 450C1290 475 1350 510 1410 540C1300 565 1180 585 1060 575C940 565 860 530 780 470Z"
    fill="url(#paint2)"
    opacity="0.45"
    filter="url(#blur)"
  />

  <circle cx="540" cy="505" r="90" fill="#FFB4D9" opacity="0.15" filter="url(#blur)"/>
  <circle cx="760" cy="455" r="80" fill="#D8B4FE" opacity="0.15" filter="url(#blur)"/>
  <circle cx="1080" cy="500" r="110" fill="#93C5FD" opacity="0.15" filter="url(#blur)"/>

  <text
    x="800"
    y="430"
    text-anchor="middle"
    font-family="Inter, Arial, sans-serif"
    font-size="58"
    font-weight="700"
    fill="#111111"
  >
    Modern Tasarımla
  </text>

  <text
    x="800"
    y="505"
    text-anchor="middle"
    font-family="Inter, Arial, sans-serif"
    font-size="58"
    font-weight="700"
    fill="#111111"
  >
    İstediğinize Göre Çözümler
  </text>

  <text
    x="800"
    y="575"
    text-anchor="middle"
    font-family="Inter, Arial, sans-serif"
    font-size="24"
    font-weight="400"
    fill="#555555"
  >
    Markanızı modern ve etkileyici tasarımlarla öne çıkarın.
  </text>

  <text
    x="800"
    y="610"
    text-anchor="middle"
    font-family="Inter, Arial, sans-serif"
    font-size="24"
    font-weight="400"
    fill="#555555"
  >
    Minimal, akışkan ve güçlü bir dijital deneyim oluşturun.
  </text>
</svg>